HIERARCHY
ROOT root
{
	OFFSET 0.000000 0.000000 0.000000
	CHANNELS 6 Xposition Yposition Zposition Zrotation Yrotation Xrotation
	JOINT lhip
	{
		OFFSET 0.058581 -0.082280 -0.017664
		CHANNELS 3 Zrotation Yrotation Xrotation
		JOINT lknee
		{
			OFFSET 0.043451 -0.386469 0.008037
			CHANNELS 3 Zrotation Yrotation Xrotation
			JOINT lankle
			{
				OFFSET -0.014790 -0.426874 -0.037428
				CHANNELS 3 Zrotation Yrotation Xrotation
				JOINT ltoe
				{
					OFFSET 0.041054 -0.060286 0.122042
					CHANNELS 3 Zrotation Yrotation Xrotation
					End Site
					{
						OFFSET 0.000000 0.000000 0.000000
					}
				}
			}
		}
	}
	JOINT rhip
	{
		OFFSET -0.060310 -0.090513 -0.013543
		CHANNELS 3 Zrotation Yrotation Xrotation
		JOINT rknee
		{
			OFFSET -0.043257 -0.383688 -0.004843
			CHANNELS 3 Zrotation Yrotation Xrotation
			JOINT rankle
			{
				OFFSET 0.019056 -0.420046 -0.034562
				CHANNELS 3 Zrotation Yrotation Xrotation
				JOINT rtoe
				{
					OFFSET -0.034840 -0.062106 0.130323
					CHANNELS 3 Zrotation Yrotation Xrotation
					End Site
					{
						OFFSET 0.000000 0.000000 0.000000
					}
				}
			}
		}
	}
	JOINT lowerback
	{
		OFFSET 0.004439 0.124404 -0.038385
		CHANNELS 3 Zrotation Yrotation Xrotation
		JOINT upperback
		{
			OFFSET 0.004488 0.137956 0.026820
			CHANNELS 3 Zrotation Yrotation Xrotation
			JOINT chest
			{
				OFFSET -0.002265 0.056032 0.002855
				CHANNELS 3 Zrotation Yrotation Xrotation
				JOINT lowerneck
				{
					OFFSET -0.013390 0.211636 -0.033468
					CHANNELS 3 Zrotation Yrotation Xrotation
					JOINT upperneck
					{
						OFFSET 0.010113 0.088937 0.050410
						CHANNELS 3 Zrotation Yrotation Xrotation
						End Site
						{
							OFFSET 0.000000 0.000000 0.000000
						}
					}
				}
				JOINT lclavicle
				{
					OFFSET 0.071702 0.114000 -0.018898
					CHANNELS 3 Zrotation Yrotation Xrotation
					JOINT lshoulder
					{
						OFFSET 0.122921 0.045205 -0.019046
						CHANNELS 3 Zrotation Yrotation Xrotation
						JOINT lelbow
						{
							OFFSET 0.255332 -0.015649 -0.022946
							CHANNELS 3 Zrotation Yrotation Xrotation
							JOINT lwrist
							{
								OFFSET 0.265709 0.012698 -0.007375
								CHANNELS 3 Zrotation Yrotation Xrotation
								End Site
								{
									OFFSET 0.000000 0.000000 0.000000
								}
							}
						}
					}
				}
				JOINT rclavicle
				{
					OFFSET -0.082954 0.112472 -0.023707
					CHANNELS 3 Zrotation Yrotation Xrotation
					JOINT rshoulder
					{
						OFFSET -0.113228 0.046853 -0.008472
						CHANNELS 3 Zrotation Yrotation Xrotation
						JOINT relbow
						{
							OFFSET -0.260127 -0.014369 -0.031269
							CHANNELS 3 Zrotation Yrotation Xrotation
							JOINT rwrist
							{
								OFFSET -0.269108 0.006794 -0.006027
								CHANNELS 3 Zrotation Yrotation Xrotation
								End Site
								{
									OFFSET 0.000000 0.000000 0.000000
								}
							}
						}
					}
				}
			}
		}
	}
}
MOTION
Frames: 10
Frame Time: 0.033333
-0.165816 0.248449 1.000463 90.776075 0.320462 87.990032 1.706332 1.645929 4.198085 -3.574467 -8.838864 4.648774 2.446531 6.019494 -11.549715 0.000000 -0.000000 0.000000 -0.479233 -1.656695 0.162087 0.084949 0.770611 12.684990 3.725681 -7.721868 -11.310205 0.000000 -0.000000 0.000000 0.078228 -0.584921 8.543614 1.353204 -1.073871 -4.954733 -0.162210 -2.479089 -0.391938 3.650064 0.790831 -8.024390 -3.143642 -7.404820 15.480038 -29.663011 7.083868 -0.320514 -54.765127 -6.254716 9.996583 6.819023 -22.575221 9.350188 4.688714 -3.326076 0.314566 32.758323 -0.906917 -3.246544 52.183662 4.592170 16.791473 -11.728326 20.608348 -3.662212 -2.464885 5.282549 -1.940879 
-0.165564 0.248520 1.000432 90.681132 0.326483 87.946164 1.722600 1.794627 4.227950 -3.581922 -8.823018 4.706518 2.371259 5.971247 -11.676768 0.000000 -0.000000 0.000000 -0.489058 -1.753187 0.201587 0.081332 0.883122 12.756601 3.703529 -7.603064 -11.358437 0.000000 -0.000000 0.000000 0.091230 -0.483311 8.468534 1.373808 -1.068343 -4.836575 -0.166257 -2.527461 -0.354656 3.716554 0.670120 -7.974593 -3.176247 -7.541166 15.475765 -29.769872 6.969417 -0.321102 -54.777489 -6.222424 10.040820 7.018529 -22.035351 9.195520 5.043380 -3.652569 0.335798 32.741241 -0.809069 -3.194319 52.276855 4.537089 16.686448 -11.688713 20.080887 -4.011728 -2.842528 5.259734 -2.539533 
-0.165542 0.248628 1.000391 90.599393 0.319412 87.987412 1.708759 1.815478 4.241690 -3.581956 -8.738016 4.656718 2.411630 5.936918 -11.576031 0.000000 -0.000000 0.000000 -0.487416 -1.657901 0.159641 0.056584 0.882002 12.761394 3.728984 -7.510509 -11.298407 0.000000 -0.000000 0.000000 0.098961 -0.505670 8.421330 1.364559 -1.028922 -4.698072 -0.156255 -2.574810 -0.484194 3.732991 0.660449 -7.781087 -3.019579 -7.477073 15.333452 -29.733393 6.640897 -0.191891 -54.984476 -5.887721 10.049369 7.566934 -21.975466 8.822182 5.140601 -3.260459 0.644794 32.736312 -0.694361 -3.137122 52.371605 4.653323 16.443412 -11.603757 19.691690 -4.473297 -2.478785 4.920803 -2.639762 
-0.165579 0.248821 1.000353 90.604936 0.322646 87.951190 1.709825 1.872713 4.287517 -3.596381 -8.819726 4.670585 2.388991 5.989945 -11.662237 0.000000 -0.000000 0.000000 -0.513585 -1.789215 0.188509 0.062232 0.885938 12.754151 3.765708 -7.438749 -11.277733 0.000000 -0.000000 0.000000 0.099811 -0.458211 8.475364 1.386750 -1.059827 -4.668684 -0.122731 -2.618568 -0.444470 3.742904 0.612993 -8.000328 -3.088398 -7.524020 15.490947 -29.823918 6.597835 -0.328312 -55.048767 -5.885129 10.037964 7.799212 -21.552379 8.571632 5.629498 -3.438068 0.826093 32.847213 -0.688167 -3.224611 52.117765 4.811483 16.480709 -11.315395 19.506881 -4.252898 -2.009165 4.842898 -2.350281 
-0.165733 0.248868 1.000388 90.640916 0.324263 87.944131 1.685995 1.825501 4.262806 -3.568568 -8.809347 4.714997 2.306286 6.016925 -11.729541 0.000000 -0.000000 0.000000 -0.489127 -1.653361 0.189077 0.042416 0.854757 12.752273 3.806134 -7.485427 -11.243368 0.000000 -0.000000 0.000000 0.029807 -0.508485 8.608827 1.410484 -1.030890 -4.661300 -0.065416 -2.650547 -0.503837 3.841244 0.489398 -8.062666 -3.058503 -7.557894 15.374503 -29.814690 6.698002 -0.265407 -55.192814 -5.832285 10.029314 8.181262 -21.921752 8.184059 5.412078 -3.014559 0.850012 32.894238 -0.681028 -3.237075 51.982749 5.116909 16.169269 -10.978223 19.144370 -4.952980 -0.818318 4.168385 -2.496273 
-0.165622 0.249023 1.000466 90.715312 0.335762 87.873767 1.720119 1.911397 4.401958 -3.586555 -8.893200 4.642339 2.248234 5.949231 -11.700619 0.000000 -0.000000 0.000000 -0.484177 -1.726768 0.274074 -0.008381 0.765497 12.805690 3.908569 -7.350638 -11.343518 0.000000 -0.000000 0.000000 0.007090 -0.571039 8.674547 1.406503 -0.995148 -4.573781 -0.096494 -2.595575 -0.491591 3.968589 0.415213 -8.105793 -2.964143 -7.623539 15.333095 -29.757714 6.809783 -0.207833 -55.224945 -5.847502 10.148981 8.388275 -22.406106 8.082505 5.545514 -3.279313 1.110600 32.780919 -0.737207 -3.406435 52.028255 5.168366 15.810654 -10.530942 18.713986 -5.626747 0.931202 3.785158 -3.007641 
-0.165762 0.249022 1.000387 90.784431 0.332916 87.904127 1.735385 1.965482 4.381315 -3.603480 -8.993684 4.642051 2.192848 5.951042 -11.695751 0.000000 -0.000000 0.000000 -0.454859 -1.707228 0.202533 -0.039532 0.743330 12.893922 3.916311 -7.398949 -11.400487 0.000000 -0.000000 0.000000 -0.039521 -0.578989 8.580397 1.414750 -0.971949 -4.486639 -0.120999 -2.525453 -0.419922 4.048285 0.362574 -8.109691 -2.875828 -7.835810 15.220227 -29.619319 6.922314 -0.280011 -55.259917 -5.991889 10.323692 8.398163 -22.492223 8.352553 5.630346 -3.086689 1.511080 32.715883 -0.706846 -3.508379 52.091835 5.191331 15.593191 -10.261192 18.128180 -6.076939 2.095106 3.725136 -3.415930 
-0.166330 0.249058 1.000444 90.850195 0.353871 87.905830 1.751439 1.925862 4.286354 -3.624169 -9.029993 4.754168 2.159492 5.958791 -11.673797 0.000000 -0.000000 0.000000 -0.420047 -1.645039 0.212275 -0.043880 0.754466 12.807503 3.893541 -7.463137 -11.329977 0.000000 -0.000000 0.000000 -0.013052 -0.486720 8.757132 1.403627 -0.940973 -4.464766 -0.143304 -2.457794 -0.497573 4.070818 0.252589 -8.149233 -2.793107 -8.004675 15.083115 -29.559443 6.846384 -0.373845 -55.141396 -6.196163 10.429484 8.179721 -22.664866 8.625199 5.416318 -2.752048 1.852101 32.713997 -0.708666 -3.590817 52.087420 5.117322 15.466772 -10.051179 18.010078 -6.280178 2.755684 3.469240 -3.431286 
-0.166457 0.249144 1.000419 90.912849 0.324014 87.907609 1.698004 1.874416 4.327942 -3.623782 -9.121963 4.680485 2.277301 6.125381 -11.680063 0.000000 -0.000000 0.000000 -0.430951 -1.593134 0.105415 -0.043283 0.777103 13.027930 3.913081 -7.548153 -11.474409 0.000000 -0.000000 0.000000 -0.044812 -0.505210 8.809516 1.391634 -0.890607 -4.384443 -0.129770 -2.377206 -0.377947 4.019059 0.326299 -8.534262 -2.833968 -7.967869 14.955138 -29.473116 6.871724 -0.581483 -55.181422 -6.254648 10.524290 8.185158 -23.017599 9.040016 5.156397 -2.129112 2.312957 32.690236 -0.713471 -3.607212 52.150822 5.101263 15.479603 -9.864555 18.016916 -6.034391 3.497746 3.146651 -3.028445 
-0.166496 0.249054 1.000467 90.981076 0.322764 87.930330 1.713247 1.982747 4.289660 -3.624730 -9.123087 4.716183 2.228683 6.003210 -11.719616 0.000000 -0.000000 0.000000 -0.392561 -1.646293 0.072126 -0.082890 0.781863 12.996670 3.949711 -7.617036 -11.414951 0.000000 -0.000000 0.000000 -0.040849 -0.469985 8.887153 1.347957 -0.837299 -4.514441 -0.143863 -2.357029 -0.296160 3.967807 0.463633 -8.579411 -2.854065 -7.883053 15.046887 -29.469548 7.098485 -0.736855 -55.062592 -6.459334 10.491674 7.907501 -22.679393 9.133850 5.499684 -2.335268 2.205881 32.787353 -0.893507 -3.823378 52.195453 4.980892 15.544021 -9.698189 17.911557 -5.983093 3.398747 3.070665 -3.065564 
